<svg width="345" height="345" viewBox="0 0 345 345" fill="none" xmlns="http://www.w3.org/2000/svg">
<mask id="mask0" style="mask-type:alpha" maskUnits="userSpaceOnUse" x="0" y="0" width="345" height="345">
<circle cx="172.5" cy="172.5" r="172.5" fill="#E8EFFF"/>
</mask>
<g mask="url(#mask0)">
<circle cx="172.5" cy="172.5" r="172.5" fill="#E8EFFF"/>
<path d="M337.414 97.4707C341.41 97.4707 344.649 94.2313 344.649 90.2353C344.649 86.2394 341.41 83 337.414 83C333.418 83 330.179 86.2394 330.179 90.2353C330.179 94.2313 333.418 97.4707 337.414 97.4707Z" fill="#BACAF0"/>
<path d="M337.414 165C341.41 165 344.649 161.761 344.649 157.765C344.649 153.769 341.41 150.529 337.414 150.529C333.418 150.529 330.179 153.769 330.179 157.765C330.179 161.761 333.418 165 337.414 165Z" fill="#BACAF0"/>
<path d="M337.414 131.236C341.41 131.236 344.649 127.997 344.649 124.001C344.649 120.005 341.41 116.765 337.414 116.765C333.418 116.765 330.179 120.005 330.179 124.001C330.179 127.997 333.418 131.236 337.414 131.236Z" fill="#3D58FF"/>
<path d="M260.235 97.4707C264.231 97.4707 267.471 94.2313 267.471 90.2353C267.471 86.2394 264.231 83 260.235 83C256.239 83 253 86.2394 253 90.2353C253 94.2313 256.239 97.4707 260.235 97.4707Z" fill="#BACAF0"/>
<path d="M260.235 165C264.231 165 267.471 161.761 267.471 157.765C267.471 153.769 264.231 150.529 260.235 150.529C256.239 150.529 253 153.769 253 157.765C253 161.761 256.239 165 260.235 165Z" fill="#ECAE00"/>
<path d="M260.235 131.236C264.231 131.236 267.471 127.997 267.471 124.001C267.471 120.005 264.231 116.765 260.235 116.765C256.239 116.765 253 120.005 253 124.001C253 127.997 256.239 131.236 260.235 131.236Z" fill="#BACAF0"/>
<path d="M298.825 97.4707C302.821 97.4707 306.06 94.2313 306.06 90.2353C306.06 86.2394 302.821 83 298.825 83C294.829 83 291.589 86.2394 291.589 90.2353C291.589 94.2313 294.829 97.4707 298.825 97.4707Z" fill="#BACAF0"/>
<path d="M298.825 165C302.821 165 306.06 161.761 306.06 157.765C306.06 153.769 302.821 150.529 298.825 150.529C294.829 150.529 291.589 153.769 291.589 157.765C291.589 161.761 294.829 165 298.825 165Z" fill="#BACAF0"/>
<path d="M298.825 131.236C302.821 131.236 306.06 127.997 306.06 124.001C306.06 120.005 302.821 116.765 298.825 116.765C294.829 116.765 291.589 120.005 291.589 124.001C291.589 127.997 294.829 131.236 298.825 131.236Z" fill="#BACAF0"/>
<path d="M136.461 112.147C82.6495 112.147 38.866 155.085 37.5034 208.568C37.4553 210.398 37.8176 334.59 37.8176 334.59L80.7329 292.958C143.709 337.954 237.131 289.277 235.451 211.136C235.452 156.468 191.133 112.147 136.461 112.147Z" fill="#6A84FF"/>
<path d="M235.451 211.136C235.451 208.536 235.35 205.96 235.153 203.411C229.215 275.703 145.117 324.119 83.8729 272.264L50.4445 302.362C50.341 266.521 50.1825 209.818 50.2151 208.568C51.5238 157.209 91.9533 115.581 142.815 112.356C86.9517 108.561 38.6994 152.871 37.5039 208.568C37.4558 210.398 37.8181 334.59 37.8181 334.59L80.7334 292.958C143.708 337.954 237.131 289.277 235.451 211.136Z" fill="#506FFF"/>
<path d="M213.809 56.8093C200.847 56.6777 189.191 61.3131 179.255 68.709C137.698 100.158 160.896 169.651 213.81 169.021C287.806 167.14 287.797 58.6812 213.809 56.8093Z" fill="#D3E0EF"/>
<path d="M223.023 159.809C175.164 160.378 151.621 103.588 178.303 69.4615C138.075 101.249 161.309 169.646 213.81 169.021C233.811 168.513 248.402 160.215 257.59 148.343C248.822 155.111 237.302 159.446 223.023 159.809Z" fill="#9BB6F1"/>
<path d="M86.6591 151.112L81.0869 144.582C83.4372 142.576 86.025 140.711 88.246 139.153L93.1777 146.178C91.1205 147.623 88.7375 149.338 86.6591 151.112Z" fill="white"/>
<path d="M100.063 142.051L96.0732 134.45C99.0038 132.912 101.681 131.666 104.259 130.641L107.431 138.618C105.136 139.53 102.725 140.654 100.063 142.051Z" fill="white"/>
<path d="M141.613 232.014L117.16 207.56C112.206 202.605 112.206 194.573 117.16 189.618L126.402 180.376L108.134 162.109L95.8639 174.38C82.5239 187.72 82.5239 209.349 95.8639 222.689L126.484 253.309C139.824 266.649 161.454 266.649 174.794 253.309L187.064 241.039L168.797 222.772L159.555 232.014C154.6 236.968 146.568 236.968 141.613 232.014Z" fill="#FBF2E2"/>
<path d="M177.696 231.671L163.846 245.521C156.403 252.964 144.336 252.964 136.893 245.521C136.714 245.331 117.106 225.743 104.891 213.525C97.283 205.915 96.7468 193.782 103.603 185.489C107.804 180.408 112.94 175.863 117.387 171.363L108.134 162.109C98.2799 172.091 86.4391 181.084 85.9458 196.226C84.9644 213.141 94.0394 221.193 105.117 231.943C105.116 231.942 105.116 231.942 105.116 231.942L126.484 253.31C139.824 266.65 161.453 266.65 174.794 253.31L187.064 241.039L177.696 231.671Z" fill="#F7E0BA"/>
<path d="M214.667 264.303L221.772 269.162C223.439 266.724 225.019 264.186 226.469 261.617L218.972 257.387C217.644 259.741 216.196 262.068 214.667 264.303Z" fill="black"/>
<path d="M136.38 305.644C116.103 305.703 96.6417 299.152 80.2857 287.345L41.608 324.714V284.467H33V345L81.278 298.355C97.7673 308.767 116.741 314.252 136.38 314.252C167.478 314.252 196.633 300.445 216.369 276.369L209.712 270.912C191.617 292.985 164.889 305.644 136.38 305.644Z" fill="black"/>
<path d="M274.352 112.567C274.352 79.17 247.182 52 213.785 52C203.587 52 193.502 54.5832 184.621 59.4721L188.772 67.0128C196.385 62.8227 205.035 60.608 213.785 60.608C242.435 60.608 265.743 83.9164 265.743 112.567C265.743 141.217 242.435 164.525 213.785 164.525C185.135 164.525 161.827 141.217 161.827 112.567C161.827 96.4782 169.103 81.5558 181.788 71.6264L176.482 64.8479C162.671 75.658 154.365 91.5476 153.33 108.881C147.748 107.961 142.068 107.493 136.38 107.493C79.3758 107.493 33 153.868 33 210.872V275.86H41.608V210.872C41.608 158.614 84.1228 116.1 136.38 116.1C142.112 116.1 147.833 116.621 153.433 117.637C155.947 151.913 188.641 178.036 223.027 172.429C228.417 184.537 231.153 197.453 231.153 210.872C231.153 224.68 228.251 237.99 222.528 250.431L230.348 254.029C236.594 240.451 239.76 225.931 239.76 210.872C239.76 196.802 237 183.237 231.561 170.469C256.31 162.856 274.352 139.78 274.352 112.567Z" fill="black"/>
<path d="M192.266 108.263H200.874V116.871H192.266V108.263Z" fill="black"/>
<path d="M209.481 108.263H218.089V116.871H209.481V108.263Z" fill="black"/>
<path d="M226.697 108.263H235.305V116.871H226.697V108.263Z" fill="black"/>
<path d="M81.1753 198.423C81.1753 208.722 85.1863 218.405 92.469 225.688L123.174 256.394C130.692 263.911 140.566 267.669 150.439 267.669C160.313 267.669 170.188 263.911 177.704 256.394L193.053 241.046L168.648 216.641L156.337 228.951C153.055 232.235 147.714 232.233 144.432 228.951L119.911 204.43C116.629 201.148 116.629 195.808 119.911 192.526L132.222 180.214L107.817 155.81L92.4684 171.157C85.1863 178.44 81.1753 188.124 81.1753 198.423ZM107.817 167.983L120.049 180.215L113.824 186.44C107.186 193.078 107.186 203.879 113.824 210.518L138.346 235.039C144.983 241.677 155.785 241.677 162.424 235.039L168.648 228.815L180.879 241.046L171.618 250.308C159.94 261.985 140.939 261.986 129.26 250.308L98.555 219.602C92.8982 213.945 89.7827 206.424 89.7827 198.423C89.7827 190.423 92.8982 182.902 98.555 177.245L107.817 167.983Z" fill="black"/>
</g>
</svg>
