<svg width="345" height="345" viewBox="0 0 345 345" fill="none" xmlns="http://www.w3.org/2000/svg">
<mask id="mask0" style="mask-type:alpha" maskUnits="userSpaceOnUse" x="0" y="0" width="345" height="345">
<circle cx="172.5" cy="172.5" r="172.5" fill="#E8EFFF"/>
</mask>
<g mask="url(#mask0)">
<circle cx="172.5" cy="172.5" r="172.5" fill="#E8EFFF"/>
<path d="M337.414 97.4707C341.41 97.4707 344.649 94.2313 344.649 90.2353C344.649 86.2394 341.41 83 337.414 83C333.418 83 330.179 86.2394 330.179 90.2353C330.179 94.2313 333.418 97.4707 337.414 97.4707Z" fill="#BACAF0"/>
<path d="M337.414 165C341.41 165 344.649 161.761 344.649 157.765C344.649 153.769 341.41 150.529 337.414 150.529C333.418 150.529 330.179 153.769 330.179 157.765C330.179 161.761 333.418 165 337.414 165Z" fill="#BACAF0"/>
<path d="M337.414 131.236C341.41 131.236 344.649 127.997 344.649 124.001C344.649 120.005 341.41 116.765 337.414 116.765C333.418 116.765 330.179 120.005 330.179 124.001C330.179 127.997 333.418 131.236 337.414 131.236Z" fill="#3D58FF"/>
<path d="M260.235 97.4707C264.231 97.4707 267.471 94.2313 267.471 90.2353C267.471 86.2394 264.231 83 260.235 83C256.239 83 253 86.2394 253 90.2353C253 94.2313 256.239 97.4707 260.235 97.4707Z" fill="#BACAF0"/>
<path d="M260.235 165C264.231 165 267.471 161.761 267.471 157.765C267.471 153.769 264.231 150.529 260.235 150.529C256.239 150.529 253 153.769 253 157.765C253 161.761 256.239 165 260.235 165Z" fill="#ECAE00"/>
<path d="M260.235 131.236C264.231 131.236 267.471 127.997 267.471 124.001C267.471 120.005 264.231 116.765 260.235 116.765C256.239 116.765 253 120.005 253 124.001C253 127.997 256.239 131.236 260.235 131.236Z" fill="#BACAF0"/>
<path d="M298.825 97.4707C302.821 97.4707 306.06 94.2313 306.06 90.2353C306.06 86.2394 302.821 83 298.825 83C294.829 83 291.589 86.2394 291.589 90.2353C291.589 94.2313 294.829 97.4707 298.825 97.4707Z" fill="#BACAF0"/>
<path d="M298.825 165C302.821 165 306.06 161.761 306.06 157.765C306.06 153.769 302.821 150.529 298.825 150.529C294.829 150.529 291.589 153.769 291.589 157.765C291.589 161.761 294.829 165 298.825 165Z" fill="#BACAF0"/>
<path d="M298.825 131.236C302.821 131.236 306.06 127.997 306.06 124.001C306.06 120.005 302.821 116.765 298.825 116.765C294.829 116.765 291.589 120.005 291.589 124.001C291.589 127.997 294.829 131.236 298.825 131.236Z" fill="#BACAF0"/>
<path d="M216.278 131.357L190.267 124.387L164.256 117.417C139.16 110.693 112.832 125.527 106.107 150.623C99.9728 173.516 112.302 197.184 133.484 206.249L128.133 226.221C127.428 228.85 128.373 231.649 130.537 233.304C132.667 234.947 135.624 235.164 138.001 233.793L165.152 218.117L168.566 216.146L191.884 222.394C216.981 229.119 243.309 214.285 250.033 189.188C256.758 164.092 241.374 138.081 216.278 131.357Z" fill="#D3E0EF"/>
<path d="M191.884 222.394C216.981 229.119 243.309 214.285 250.034 189.188C256.758 164.092 241.374 138.081 216.278 131.357L190.267 124.387L165.152 218.117L168.566 216.146L191.884 222.394Z" fill="#B7C8EC"/>
<path d="M165.798 278.131L158.829 304.142C155.797 315.456 144.364 321.174 134.185 318.447C96.7247 308.41 64.9247 280.908 44.9975 246.552C25.0704 212.196 17.0162 170.985 27.0536 133.525C29.9366 122.765 41.009 116.453 51.7645 119.335L77.7753 126.305C80.5758 127.055 82.58 129.511 82.7492 132.4L85.3246 174.81C85.4508 176.888 84.6091 178.902 83.0521 180.274L67.5897 193.866C69.42 203.752 74.2486 215.314 80.5284 226.039C86.8136 236.76 94.55 246.643 102.196 253.171L121.698 246.576C123.672 245.921 125.831 246.188 127.566 247.34L163.098 270.8C165.515 272.391 166.549 275.33 165.798 278.131Z" fill="#6A84FF"/>
<path d="M165.798 278.131L158.829 304.142C155.797 315.456 144.363 321.174 134.184 318.447C96.7245 308.41 64.9244 280.908 44.9973 246.552L80.5282 226.038C86.8134 236.76 94.5498 246.643 102.196 253.171L121.698 246.576C123.672 245.92 125.831 246.188 127.566 247.34L163.098 270.8C165.515 272.391 166.549 275.33 165.798 278.131Z" fill="#506FFF"/>
<path d="M150.317 169.439C153.908 170.401 157.6 168.27 158.562 164.678C159.524 161.087 157.393 157.395 153.802 156.433C150.21 155.471 146.519 157.602 145.556 161.193C144.594 164.785 146.725 168.476 150.317 169.439Z" fill="#AB9835"/>
<path d="M176.328 176.408C179.919 177.37 183.611 175.239 184.573 171.647C185.535 168.056 183.404 164.365 179.813 163.402C176.221 162.44 172.53 164.571 171.568 168.163C170.605 171.754 172.737 175.445 176.328 176.408Z" fill="#AB9835"/>
<path d="M184.573 171.647C185.536 168.056 183.404 164.365 179.813 163.402L176.328 176.408C179.919 177.37 183.611 175.239 184.573 171.647Z" fill="#DAA847"/>
<path d="M202.338 183.378C205.93 184.34 209.621 182.209 210.583 178.617C211.546 175.026 209.414 171.335 205.823 170.372C202.232 169.41 198.54 171.541 197.578 175.133C196.616 178.724 198.747 182.415 202.338 183.378Z" fill="#DAA847"/>
</g>
</svg>
