<svg width="345" height="345" viewBox="0 0 345 345" fill="none" xmlns="http://www.w3.org/2000/svg">
<mask id="mask0" style="mask-type:alpha" maskUnits="userSpaceOnUse" x="0" y="0" width="345" height="345">
<circle cx="172.5" cy="172.5" r="172.5" fill="#E8EFFF"/>
</mask>
<g mask="url(#mask0)">
<circle cx="172.5" cy="172.5" r="172.5" fill="#E8EFFF"/>
<path d="M337.414 97.4707C341.41 97.4707 344.649 94.2313 344.649 90.2353C344.649 86.2394 341.41 83 337.414 83C333.418 83 330.179 86.2394 330.179 90.2353C330.179 94.2313 333.418 97.4707 337.414 97.4707Z" fill="#BACAF0"/>
<path d="M337.414 165C341.41 165 344.649 161.761 344.649 157.765C344.649 153.769 341.41 150.529 337.414 150.529C333.418 150.529 330.179 153.769 330.179 157.765C330.179 161.761 333.418 165 337.414 165Z" fill="#BACAF0"/>
<path d="M337.414 131.236C341.41 131.236 344.649 127.997 344.649 124.001C344.649 120.005 341.41 116.765 337.414 116.765C333.418 116.765 330.179 120.005 330.179 124.001C330.179 127.997 333.418 131.236 337.414 131.236Z" fill="#3D58FF"/>
<path d="M260.235 97.4707C264.231 97.4707 267.471 94.2313 267.471 90.2353C267.471 86.2394 264.231 83 260.235 83C256.239 83 253 86.2394 253 90.2353C253 94.2313 256.239 97.4707 260.235 97.4707Z" fill="#BACAF0"/>
<path d="M260.235 165C264.231 165 267.471 161.761 267.471 157.765C267.471 153.769 264.231 150.529 260.235 150.529C256.239 150.529 253 153.769 253 157.765C253 161.761 256.239 165 260.235 165Z" fill="#ECAE00"/>
<path d="M260.235 131.236C264.231 131.236 267.471 127.997 267.471 124.001C267.471 120.005 264.231 116.765 260.235 116.765C256.239 116.765 253 120.005 253 124.001C253 127.997 256.239 131.236 260.235 131.236Z" fill="#BACAF0"/>
<path d="M298.825 97.4707C302.821 97.4707 306.06 94.2313 306.06 90.2353C306.06 86.2394 302.821 83 298.825 83C294.829 83 291.589 86.2394 291.589 90.2353C291.589 94.2313 294.829 97.4707 298.825 97.4707Z" fill="#BACAF0"/>
<path d="M298.825 165C302.821 165 306.06 161.761 306.06 157.765C306.06 153.769 302.821 150.529 298.825 150.529C294.829 150.529 291.589 153.769 291.589 157.765C291.589 161.761 294.829 165 298.825 165Z" fill="#BACAF0"/>
<path d="M298.825 131.236C302.821 131.236 306.06 127.997 306.06 124.001C306.06 120.005 302.821 116.765 298.825 116.765C294.829 116.765 291.589 120.005 291.589 124.001C291.589 127.997 294.829 131.236 298.825 131.236Z" fill="#BACAF0"/>
<path d="M22.0868 207.687L149.239 247.713C150.725 248.297 152.313 248.356 153.779 247.963C155.246 247.57 156.591 246.726 157.586 245.477L247.69 147.237L116.828 93.137C113.815 91.9342 110.375 92.8561 108.367 95.4039L22.0868 207.687Z" fill="#64B5F6"/>
<path d="M182.72 73.97L41.7179 111.751C33.9487 113.833 29.3141 121.86 31.3958 129.63L72.9554 284.732C73.9981 288.624 78.0029 290.936 81.8945 289.893L236.997 248.334C240.888 247.291 243.201 243.286 242.158 239.394L200.598 84.292C198.517 76.5228 190.503 71.8844 182.72 73.97Z" fill="#B7C8EC"/>
<path d="M74.2028 148.385L172.904 121.938C176.796 120.895 179.108 116.89 178.065 112.998C177.022 109.107 173.018 106.795 169.126 107.837L70.4246 134.284C66.533 135.327 64.2208 139.332 65.2636 143.224C66.3063 147.115 70.3111 149.427 74.2028 148.385Z" fill="white"/>
<path d="M176.682 136.038L77.9803 162.485C74.0886 163.528 71.7765 167.533 72.8192 171.424C73.862 175.316 77.8668 177.628 81.7584 176.585L180.46 150.138C184.352 149.095 186.664 145.091 185.621 141.199C184.578 137.307 180.573 134.995 176.682 136.038Z" fill="white"/>
<path d="M141.938 175.573L85.5369 190.685C81.6453 191.728 79.3331 195.733 80.3759 199.625C81.4187 203.516 85.4234 205.828 89.3151 204.786L145.716 189.673C149.608 188.63 151.92 184.626 150.877 180.734C149.834 176.842 145.829 174.53 141.938 175.573Z" fill="white"/>
<path d="M157.585 245.477C156.59 246.726 155.245 247.57 153.778 247.963C152.312 248.356 150.725 248.298 149.238 247.714L22.0859 207.687L56.0892 334.589C58.1747 342.372 66.1842 346.997 73.9675 344.911L271.37 292.017C279.154 289.931 283.778 281.922 281.693 274.139L247.689 147.237L157.585 245.477Z" fill="#506FFF"/>
<path d="M271.371 292.017L73.9677 344.911C66.0575 347.031 58.2089 342.499 56.0893 334.589C55.4886 332.347 55.9935 329.945 57.4432 328.136L144.304 229.299C145.299 228.05 146.645 227.206 148.111 226.813C149.578 226.42 151.165 226.478 152.651 227.062L277.294 269.227C279.454 270.069 281.092 271.897 281.693 274.139C283.812 282.049 279.281 289.898 271.371 292.017Z" fill="#6A84FF"/>
</g>
</svg>
